HIERARCHY
ROOT Hips
{
	OFFSET 0.000000 0.000000 0.000000
	CHANNELS 6 Xposition Yposition Zposition Xrotation Yrotation Zrotation
	JOINT Chest
	{
		OFFSET 0.000000 0.009282 11.569106
		CHANNELS 3 Xrotation Yrotation Zrotation
		JOINT Chest2
		{
			OFFSET 0.000000 -0.016863 9.269641
			CHANNELS 3 Xrotation Yrotation Zrotation
			JOINT Chest3
			{
				OFFSET 0.000000 0.000000 8.374491
				CHANNELS 3 Xrotation Yrotation Zrotation
				JOINT Chest4
				{
					OFFSET 0.000000 0.000000 8.374493
					CHANNELS 3 Xrotation Yrotation Zrotation
					JOINT Neck
					{
						OFFSET 0.000000 -0.000001 12.152554
						CHANNELS 3 Xrotation Yrotation Zrotation
						JOINT Head
						{
							OFFSET 0.000000 -0.040100 7.802319
							CHANNELS 3 Xrotation Yrotation Zrotation
							End Site
							{
								OFFSET 0.000000 -0.020946 14.853096
							}
						}
					}
					JOINT RightCollar
					{
						OFFSET -2.894404 0.000000 6.791374
						CHANNELS 3 Xrotation Yrotation Zrotation
						JOINT RightShoulder
						{
							OFFSET -13.574684 0.000000 0.000000
							CHANNELS 3 Xrotation Yrotation Zrotation
							JOINT RightElbow
							{
								OFFSET -23.923903 0.000000 0.000000
								CHANNELS 3 Xrotation Yrotation Zrotation
								JOINT RightWrist
								{
									OFFSET -19.846718 -0.012765 0.000000
									CHANNELS 3 Xrotation Yrotation Zrotation
									End Site
									{
										OFFSET -14.973145 0.000000 0.000000
									}
								}
							}
						}
					}
					JOINT LeftCollar
					{
						OFFSET 2.894404 0.000000 6.791374
						CHANNELS 3 Xrotation Yrotation Zrotation
						JOINT LeftShoulder
						{
							OFFSET 13.574684 0.000000 0.000000
							CHANNELS 3 Xrotation Yrotation Zrotation
							JOINT LeftElbow
							{
								OFFSET 23.923903 0.000000 0.000000
								CHANNELS 3 Xrotation Yrotation Zrotation
								JOINT LeftWrist
								{
									OFFSET 19.846718 -0.012765 0.000000
									CHANNELS 3 Xrotation Yrotation Zrotation
									End Site
									{
										OFFSET 14.973145 0.000000 0.000000
									}
								}
							}
						}
					}
				}
			}
		}
	}
	JOINT RightHip
	{
		OFFSET -9.469263 -0.004642 0.045487
		CHANNELS 3 Xrotation Yrotation Zrotation
		JOINT RightKnee
		{
			OFFSET 0.000000 -0.002666 -40.478676
			CHANNELS 3 Xrotation Yrotation Zrotation
			JOINT RightAnkle
			{
				OFFSET 0.000000 -0.049110 -35.224068
				CHANNELS 3 Xrotation Yrotation Zrotation
				JOINT RightToe
				{
					OFFSET 0.000000 -12.539530 -6.151390
					CHANNELS 3 Xrotation Yrotation Zrotation
					End Site
					{
						OFFSET 0.000000 -5.044995 -1.291870
					}
				}
			}
		}
	}
	JOINT LeftHip
	{
		OFFSET 9.469263 -0.004642 0.045487
		CHANNELS 3 Xrotation Yrotation Zrotation
		JOINT LeftKnee
		{
			OFFSET 0.000000 -0.002666 -40.478676
			CHANNELS 3 Xrotation Yrotation Zrotation
			JOINT LeftAnkle
			{
				OFFSET 0.000000 -0.049110 -35.224068
				CHANNELS 3 Xrotation Yrotation Zrotation
				JOINT LeftToe
				{
					OFFSET 0.000000 -12.539530 -6.151390
					CHANNELS 3 Xrotation Yrotation Zrotation
					End Site
					{
						OFFSET 0.000000 -5.044995 -1.291870
					}
				}
			}
		}
	}
}
MOTION
Frames: 7
Frame Time: 0.016667
5.249057 3.056881 82.766647 -1.207328 2.734850 -126.535524 2.942126 1.726796 3.014859 1.323468 0.707770 1.284035 1.323468 0.707771 1.284044 0.994082 0.528053 0.964542 15.063108 -0.986983 -0.665353 -8.221832 -1.545697 -1.579903 -3.502213 -8.725282 1.383962 19.422135 -43.727404 0.848026 61.885127 7.622447 62.411058 -39.854123 22.337695 81.329795 -6.383795 6.851094 0.483344 9.152370 42.744246 8.405995 70.586057 12.066491 -55.710380 -9.638200 -14.282407 -55.495342 -7.451137 4.926728 -12.440746 21.284524 -4.577948 -7.311021 -8.760493 5.995026 4.806948 0.736424 -2.057507 0.107038 -1.247999 2.066740 25.123469 3.524415 0.978374 10.841938 -0.499138 -4.547562 7.693257 -1.520861 0.802878 -0.135623 
4.366899 2.109866 82.749008 -1.728970 2.347827 -127.022121 2.484765 1.817608 3.404591 1.317350 0.761940 1.317586 1.317351 0.761939 1.317595 0.989648 0.568622 0.989824 14.983864 -0.975196 -0.671143 -8.368813 -1.521173 -1.586935 -3.664951 -8.822807 1.420938 19.866823 -43.665300 1.142028 61.866453 7.494664 62.370706 -39.830945 22.440547 81.308990 -6.787138 7.005093 0.502168 9.053665 42.485525 8.729403 70.626820 11.916920 -55.709564 -9.561543 -14.184420 -55.791283 -7.821870 5.599265 -10.832713 20.763155 -4.166956 -4.937006 -8.601235 5.080734 0.438688 1.207637 -1.627881 0.151583 -1.962822 2.636110 22.850791 4.330754 1.775996 11.921211 -0.893952 -4.320722 9.528396 -1.731811 -0.082396 -0.139664 
3.997773 0.926292 82.739693 -2.703671 0.937365 -128.386137 0.878649 1.722475 4.652508 1.275716 0.753891 1.336486 1.275717 0.753891 1.336497 0.958426 0.562634 1.003928 15.018630 -0.913984 -0.650803 -8.303073 -1.417911 -1.526547 -3.730163 -9.083095 1.644711 19.853185 -43.495317 1.013565 62.058552 7.192129 62.318817 -40.017498 22.408317 81.417480 -6.884373 7.104852 0.696610 8.795774 42.482916 8.859649 70.640077 11.529247 -55.368860 -9.542006 -14.059234 -56.002664 -11.083095 6.538501 -5.747113 21.085784 -6.652138 -2.611362 -6.923833 5.940081 -5.308846 0.689701 -1.236723 0.782756 -4.284035 2.787180 21.368030 5.481370 2.479954 13.887447 -1.440674 -3.973133 10.126648 -1.793622 -0.868240 -0.096713 
4.204919 0.009227 82.744484 -2.425015 0.631517 -128.573339 0.807524 1.251728 4.757182 1.245244 0.709519 1.344240 1.245245 0.709519 1.344219 0.935486 0.529406 1.009605 15.148625 -0.837013 -0.634263 -8.060288 -1.285545 -1.466265 -3.507522 -9.074395 1.658858 19.745385 -43.508851 0.973071 62.202738 7.078556 62.365815 -40.371394 22.359126 81.685115 -6.415568 6.921513 0.887532 8.362238 42.860004 8.687128 70.601343 11.224988 -55.093795 -9.364384 -13.829457 -55.781178 -11.725767 6.442128 -2.452446 21.285472 -7.745384 -4.981595 -6.647921 6.093785 -6.807871 0.230709 -1.510944 2.015921 -5.219446 2.323800 19.789635 6.527631 3.011817 14.888716 -1.644906 -3.848958 10.117079 -1.510694 -1.196013 -0.086985 
3.552810 -0.591622 82.756042 -1.898067 1.991483 -127.281286 2.246357 1.564144 3.477846 1.237705 0.676663 1.342838 1.237705 0.676663 1.342843 0.929761 0.504783 1.008497 15.240435 -0.799471 -0.629380 -7.889147 -1.220068 -1.442498 -3.742924 -9.057317 1.515059 20.010825 -43.630463 0.729033 62.130672 7.346356 62.475406 -40.568947 22.284652 81.843958 -6.266702 6.821427 0.857281 8.452477 43.000419 8.492662 70.520692 11.195488 -55.216369 -8.972323 -13.928040 -55.376394 -10.249646 7.229619 -2.440226 21.380046 -6.977338 -8.288420 -7.785600 4.492031 -3.727924 0.802489 -1.257782 1.159406 -4.051351 3.190626 18.296268 7.232491 2.579014 13.515684 -1.460719 -3.486045 9.732555 -1.560022 -1.097906 -0.108838 
3.400731 -1.345595 82.749710 -1.874716 2.169998 -126.959474 2.496018 1.632549 3.251331 1.234667 0.628906 1.322507 1.234667 0.628905 1.322506 0.927357 0.469012 0.993150 15.283639 -0.778196 -0.612637 -7.808544 -1.188048 -1.403732 -3.801337 -9.058205 1.602715 19.714397 -43.798410 0.092759 61.990565 7.660864 62.517323 -40.559289 22.193296 81.860446 -6.317542 6.913294 0.760092 8.749738 42.778991 8.304052 70.617900 11.229819 -55.537306 -8.705272 -14.268086 -55.000874 -10.164384 7.674460 -2.747279 21.611822 -6.090769 -8.504545 -8.120628 3.737843 -2.666295 0.908067 -1.410980 0.804505 -4.368623 3.627912 17.939485 7.918719 1.407953 10.224554 -1.037452 -2.678168 9.504198 -1.406190 -1.013868 -0.114510 
3.460954 -1.872094 82.778061 -1.803730 1.898256 -126.531618 2.517043 1.445725 2.986965 1.202345 0.564033 1.281844 1.202345 0.564034 1.281856 0.902941 0.420507 0.962505 15.295613 -0.758825 -0.589749 -7.785974 -1.161430 -1.354773 -3.406284 -8.906905 1.675357 19.007259 -43.961789 -0.308187 61.882299 7.842050 62.448023 -40.504501 22.118149 81.843964 -6.382928 7.032256 0.775989 9.106443 42.532425 7.968601 70.852571 11.270867 -55.734771 -8.778128 -14.469974 -54.770413 -10.742166 7.298896 -1.603837 21.584105 -5.628811 -6.772222 -7.626118 3.979123 -4.607663 0.758411 -1.634207 1.266727 -4.697405 3.682667 16.598350 8.575250 0.208260 5.813737 -1.095765 -1.747801 9.617915 -0.959587 -0.871630 -0.149241 
